<svg xmlns="http://www.w3.org/2000/svg" viewBox="0 0 1200 675" role="img" aria-label="Cloud and Identity Security course artwork"><defs><linearGradient id="bg" x1="0" y1="0" x2="1" y2="1"><stop stop-color="#071315"/><stop offset="1" stop-color="#173239"/></linearGradient><radialGradient id="g"><stop stop-color="#36e1d0" stop-opacity=".32"/><stop offset="1" stop-color="#36e1d0" stop-opacity="0"/></radialGradient></defs><rect width="1200" height="675" rx="42" fill="url(#bg)"/><circle cx="960" cy="150" r="290" fill="url(#g)"/><g transform="translate(560 140)"><path d="M120 275h330c75 0 118-39 118-99 0-59-45-98-105-98-23-53-74-83-132-83-85 0-151 55-163 133-55 4-98 41-98 91 0 33 17 56 50 56Z" fill="#102a2f" stroke="#52eadb" stroke-width="6"/><g stroke="#8df6c8" stroke-width="5" fill="#0c1c20"><circle cx="230" cy="190" r="28"/><circle cx="362" cy="126" r="28"/><circle cx="430" cy="220" r="28"/><circle cx="300" cy="282" r="28"/><path d="M252 177l83-40M386 144l29 52M410 231l-82 38M282 260l-33-47"/></g><g transform="translate(178 330)"><rect width="310" height="120" rx="26" fill="#10252a" stroke="#52eadb" stroke-width="5"/><circle cx="62" cy="60" r="27" fill="#8df6c8"/><path d="M108 45h145M108 72h105" stroke="#dffcf8" stroke-width="7" stroke-linecap="round"/><path d="M274 45v31" stroke="#f3c969" stroke-width="8" stroke-linecap="round"/><circle cx="274" cy="89" r="5" fill="#f3c969"/></g></g><g font-family="Inter,Arial,sans-serif" fill="#f0fffd"><text x="92" y="250" font-size="30" font-weight="700" letter-spacing="4">ZERO TRUST</text><text x="92" y="328" font-size="70" font-weight="800">CLOUD &amp;</text><text x="92" y="398" font-size="70" font-weight="800" fill="#79f0e4">IDENTITY</text><text x="96" y="460" font-size="24" fill="#9ec4c2">VERIFY · LIMIT · PROTECT</text></g></svg>